<?xml version="1.0" encoding="UTF-8"?>
<!DOCTYPE svg  PUBLIC '-//W3C//DTD SVG 1.1//EN'  'http://www.w3.org/Graphics/SVG/1.1/DTD/svg11.dtd'>
<svg width="153.84mm" height="153.84mm" clip-rule="evenodd" fill-rule="evenodd" image-rendering="optimizeQuality" shape-rendering="geometricPrecision" text-rendering="geometricPrecision" version="1.1" viewBox="0 0 15384 15384" xml:space="preserve" xmlns="http://www.w3.org/2000/svg">
 <defs>
  <style type="text/css">
   <![CDATA[
    .fil5 {fill:none}
    .fil0 {fill:#2DDA3F}
    .fil3 {fill:#BEF2C3}
    .fil2 {fill:white}
    .fil1 {fill:black;fill-opacity:0.250980}
    .fil4 {fill:#FEFEFE;fill-opacity:0.309804}
   ]]>
  </style>
 </defs>
 
  
  
   <path class="fil0" d="m4309 2083h6766c1225 0 2227 1002 2227 2226v6766c0 1225-1002 2227-2227 2227h-6766c-1224 0-2226-1002-2226-2227v-6766c0-1224 1002-2226 2226-2226z"/>
   <path class="fil1" d="m11431 3983c208-20 386 7 390 94 3 88-205 124-276 340-35 106-52 217-60 302 139 215 220 471 220 745v4825c0 759-621 1380-1380 1380-618 0-1144-411-1318-973-612 597-1457 966-2391 966-1866 0-3379-1473-3379-3291 0-1369 859-2543 2081-3039l-266-665c1341 1 2892 449 3893 1371v-574c0-759 621-1380 1380-1380 193 0 378 40 546 113 144-73 412-200 560-214zm-3696 3787c0 243 197 440 440 440s441-197 441-440c0-244-198-441-441-441s-440 197-440 441zm2723-2061c0 160 129 289 289 289 159 0 289-129 289-289s-130-289-289-289c-160 0-289 129-289 289zm-935 0c0 160 130 289 289 289 160 0 289-129 289-289s-129-289-289-289c-159 0-289 129-289 289zm-3230 2501c243 0 440-197 440-440 0-244-197-441-440-441s-440 197-440 441c0 243 197 440 440 440z"/>
   
    <path class="fil2" d="m8338 8079c-243 0-440-197-440-440s197-440 440-440c244 0 441 197 441 440s-197 440-441 440zm-1559 3453c1865 0 3378-1474 3378-3291 0-2508-2751-3704-4941-3705l265 666c-1222 495-2080 1669-2080 3039 0 1817 1512 3291 3378 3291zm-323-4333c243 0 440 197 440 440s-197 440-440 440-440-197-440-440 197-440 440-440z"/>
    <path class="fil3" d="m11199 5579c0 159-130 289-289 289-160 0-289-130-289-289 0-160 129-290 289-290 159 0 289 130 289 290zm-165-1512c-168-73-352-114-546-114-759 0-1380 621-1380 1380v575c635 585 1049 1360 1049 2333 0 907-377 1729-987 2324 175 562 701 973 1318 973 759 0 1380-621 1380-1380v-4825c0-274-81-529-220-745 8-84 25-195 60-302 71-215 279-252 276-339-4-88-182-115-390-95-147 15-416 141-560 215zm-770 1512c0 159-129 289-289 289-159 0-289-130-289-289 0-160 130-290 289-290 160 0 289 130 289 290z"/>
   
   <path class="fil4" d="m10829 3e3c852 0 1549 707 1549 1570v6500c0 864-697 1570-1549 1570h514c852 0 1549-706 1549-1570v-7021c0-863-697-1570-1549-1570h-6926c-852 0-1549 707-1549 1570v521c0-863 697-1570 1549-1570h6412z"/>
  
  <rect class="fil5" width="15384" height="15384"/>
 
</svg>
